<?xml version="1.0" standalone="no"?>
<!DOCTYPE svg PUBLIC "-//W3C//DTD SVG 20010904//EN"
 "http://www.w3.org/TR/2001/REC-SVG-20010904/DTD/svg10.dtd">
<svg version="1.0" xmlns="http://www.w3.org/2000/svg"
 width="300.000000pt" height="300.000000pt" viewBox="0 0 300.000000 300.000000"
 preserveAspectRatio="xMidYMid meet">
<metadata>
Created by potrace 1.10, written by Peter Selinger 2001-2011
</metadata>
<g transform="translate(0.000000,300.000000) scale(0.050000,-0.050000)"
fill="#000000" stroke="none">
<path d="M2944 5495 c-22 -93 -32 -188 -26 -244 1 -11 16 0 33 25 50 71 66 32
51 -121 -4 -35 -62 -12 -62 25 0 22 -9 40 -20 40 -29 0 -25 -55 8 -117 16 -29
33 -67 38 -84 7 -23 29 -29 84 -23 47 6 65 15 49 25 -14 8 -37 11 -52 5 -26
-10 -40 37 -26 84 26 86 30 405 6 445 -41 67 -57 56 -83 -60z"/>
<path d="M2450 5067 c-33 -4 -107 -22 -163 -39 l-104 -31 0 -413 c-1 -228 4
-514 10 -636 l11 -222 143 -13 c79 -7 203 -19 275 -26 97 -9 137 -5 148 14 12
18 5 22 -27 14 -26 -7 -38 -3 -31 9 8 13 -8 16 -45 8 -86 -19 -159 36 -87 65
47 19 45 21 -26 22 -56 1 -72 -6 -61 -24 11 -19 8 -20 -14 -2 -16 12 -58 28
-93 36 -35 7 -75 29 -90 47 -23 30 -22 31 7 8 42 -32 217 -56 217 -29 0 26
-56 72 -95 78 -85 12 -67 47 24 47 91 0 116 17 42 28 -44 6 -99 112 -72 139
13 13 31 10 53 -9 30 -24 33 -24 25 2 -6 17 -32 41 -59 54 -60 31 -61 62 -5
124 24 26 39 60 33 75 -6 15 0 27 12 27 12 0 22 10 22 21 0 12 -9 16 -20 9
-11 -7 -20 -2 -20 11 0 15 33 19 106 12 107 -10 180 9 136 36 -12 7 -22 6 -22
-3 0 -21 -225 -7 -249 16 -12 11 -1 18 28 18 63 0 41 21 -30 28 -63 7 -85 62
-27 67 21 1 38 -6 38 -16 0 -11 8 -19 17 -19 9 0 16 13 16 29 0 16 -7 25 -16
19 -9 -6 -17 -1 -17 11 0 11 14 21 30 21 44 0 37 35 -10 50 -22 7 -40 22 -40
33 0 10 11 13 24 4 14 -8 56 -17 95 -20 l71 -5 -64 29 c-44 19 -61 38 -53 59
6 16 19 25 29 19 10 -7 15 -18 10 -26 -5 -8 6 -15 24 -16 19 -1 52 -8 74 -16
23 -9 15 3 -20 29 -33 24 -44 39 -25 33 19 -7 35 -3 35 8 0 10 20 20 45 22 25
1 -21 9 -102 18 -329 34 -373 85 -93 107 260 20 391 38 402 55 10 16 -297 19
-422 4z"/>
<path d="M3110 5060 c7 -11 29 -20 49 -20 20 0 42 -13 48 -30 8 -20 -1 -30
-28 -30 -21 0 -39 -7 -39 -15 0 -8 101 -8 225 1 361 25 425 17 190 -26 -80
-14 -133 -30 -119 -35 18 -6 20 -16 5 -34 -16 -19 -1 -22 69 -11 90 14 129
-14 50 -34 -22 -6 -40 -23 -40 -39 0 -22 9 -24 38 -8 28 15 44 13 62 -9 19
-23 19 -30 1 -30 -13 0 -17 -11 -9 -23 10 -16 4 -20 -18 -11 -21 8 -29 3 -22
-14 6 -15 27 -26 49 -24 21 1 38 -5 39 -13 0 -8 0 -24 0 -34 0 -11 -36 -16
-81 -11 -44 5 -76 1 -70 -9 6 -9 -3 -22 -19 -28 -17 -7 -29 -28 -28 -47 3 -34
3 -34 12 0 6 25 21 32 49 23 21 -7 51 -2 65 10 15 12 42 16 59 9 36 -14 45
-48 13 -48 -12 0 -30 -23 -41 -52 -12 -34 -30 -48 -49 -41 -16 6 -34 3 -41 -8
-6 -10 6 -19 28 -19 99 0 143 -76 68 -118 -31 -17 -28 -22 25 -42 53 -20 56
-25 25 -42 -40 -23 -47 -71 -12 -82 15 -5 6 -24 -21 -50 -43 -40 -44 -43 -9
-64 32 -18 33 -24 7 -42 -27 -18 -27 -22 0 -40 32 -20 8 -30 -55 -21 -14 1
-25 -8 -25 -21 0 -14 5 -19 12 -13 7 7 32 -5 55 -28 41 -38 42 -40 6 -61 -30
-16 -32 -24 -11 -37 16 -10 34 -7 44 7 10 14 11 4 3 -23 -7 -27 -15 -60 -17
-75 -2 -15 -10 -33 -18 -41 -24 -23 -16 -47 16 -47 31 0 39 -52 18 -108 -7
-18 -31 -32 -53 -32 -23 0 -36 -6 -29 -13 8 -7 -2 -25 -21 -40 -19 -15 -26
-26 -15 -25 91 11 151 -86 70 -112 -59 -19 -25 -55 37 -41 40 9 45 7 23 -8
-20 -14 -22 -20 -5 -21 14 0 25 -9 25 -20 0 -11 -13 -20 -30 -20 -16 0 -30 -8
-30 -18 0 -10 -31 -15 -70 -13 -38 3 -70 -3 -70 -13 0 -10 -10 -12 -23 -4 -14
8 -18 5 -10 -7 7 -11 53 -18 103 -14 49 3 90 -3 90 -13 0 -10 -11 -19 -25 -19
-14 -1 -5 -11 20 -23 52 -26 58 -61 15 -96 -35 -29 -41 -89 -7 -68 16 9 20 2
13 -24 -8 -32 1 -38 57 -38 l67 0 0 1114 c0 1073 -1 1115 -38 1135 -86 46
-678 84 -652 41z"/>
<path d="M2570 4979 c-31 -13 -20 -17 44 -14 46 1 79 10 74 19 -13 20 -66 18
-118 -5z"/>
<path d="M2712 4868 c-7 -17 -12 -33 -12 -35 0 -1 22 -3 48 -3 37 0 43 6 28
25 -16 20 -1 22 72 12 63 -8 92 -5 92 10 0 38 -213 30 -228 -9z"/>
<path d="M2846 4713 c7 -19 -8 -28 -50 -29 -33 -1 -65 -7 -72 -13 -7 -7 23
-10 67 -6 72 5 136 75 68 75 -13 0 -19 -12 -13 -27z"/>
<path d="M2690 4620 c7 -11 -1 -20 -18 -20 -16 0 -35 -9 -42 -20 -7 -12 6 -17
34 -12 25 5 52 10 60 11 22 2 -5 61 -27 61 -11 0 -14 -9 -7 -20z"/>
<path d="M2990 4581 c33 -9 76 -23 95 -31 23 -9 35 -5 35 13 0 18 -30 28 -95
31 -81 3 -86 1 -35 -13z"/>
<path d="M1852 4216 c-7 -25 -18 -86 -25 -136 -6 -49 -20 -105 -29 -124 -14
-27 -10 -33 23 -30 32 2 40 13 33 48 -5 30 1 46 19 46 15 0 28 -11 28 -25 1
-14 10 -7 19 15 14 32 17 25 19 -36 0 -42 -7 -71 -17 -66 -9 6 -23 -16 -29
-48 -12 -60 -61 -82 -80 -35 -7 19 -10 19 -11 -1 -1 -15 8 -45 20 -68 16 -31
16 -45 -2 -56 -40 -25 26 -38 102 -20 45 10 53 17 24 18 -63 3 -69 26 -25 93
40 61 59 344 21 320 -10 -6 -23 2 -29 18 -6 16 0 33 13 38 18 7 17 15 -3 29
-14 10 -25 26 -23 36 7 40 -36 26 -48 -16z"/>
<path d="M2826 3834 c-5 -9 36 -14 91 -12 56 3 96 13 91 22 -13 21 -168 12
-182 -10z"/>
<path d="M1500 3717 c-82 -10 -189 -22 -236 -26 -48 -4 -92 -13 -100 -20 -7
-7 -10 -411 -6 -897 4 -486 8 -1135 10 -1442 l4 -557 53 -46 c216 -185 1114
-182 1336 5 51 43 65 46 136 27 103 -28 617 -15 648 16 32 32 -2 61 -81 67
-46 3 -62 13 -54 33 11 29 -60 26 -135 -6 -22 -10 -35 -7 -35 8 0 13 9 18 20
11 11 -7 15 1 8 18 -9 24 -17 25 -38 6 -14 -13 -22 -31 -17 -39 5 -8 -13 -15
-40 -15 -37 0 -52 12 -57 45 -3 25 -21 46 -41 48 -25 2 -27 0 -5 -7 39 -12 39
-86 0 -86 -16 0 -30 11 -31 25 0 14 -13 8 -30 -14 -16 -21 -29 -28 -29 -15 0
13 -18 24 -40 24 -58 0 -49 33 15 58 l55 22 -55 -7 c-38 -5 -55 2 -55 21 0 16
9 23 20 16 11 -7 20 -3 20 9 0 11 -10 21 -21 21 -13 0 -16 17 -9 41 9 29 2 51
-23 71 -34 26 -33 28 18 19 30 -4 55 -5 55 0 0 4 -25 21 -55 38 l-55 29 60 4
c35 1 45 6 25 12 -20 5 -30 18 -23 30 7 11 1 28 -14 38 -22 13 -19 23 17 49
25 17 45 41 45 53 0 13 -11 12 -30 -4 -25 -21 -30 -18 -30 18 0 23 -9 42 -20
42 -40 0 -18 31 40 57 65 28 80 63 28 63 -20 0 -28 11 -21 30 17 43 -6 90 -44
91 -22 0 -15 10 20 29 56 31 93 94 52 88 -54 -7 -97 3 -86 20 6 9 -7 22 -28
28 -38 10 -39 -5 -40 -511 0 -286 -5 -525 -11 -532 -17 -17 -70 -21 -70 -6 0
28 -96 22 -107 -6 -7 -18 -29 -26 -56 -21 -24 5 -56 -1 -70 -12 -14 -12 -34
-16 -45 -10 -10 7 -32 -1 -49 -18 -37 -36 -73 -39 -73 -5 -1 18 -5 18 -18 -2
-12 -20 -21 -21 -31 -4 -11 17 -21 17 -42 0 -15 -12 -37 -17 -48 -10 -12 8
-21 4 -21 -8 0 -11 -10 -21 -21 -21 -12 0 -16 9 -9 20 7 11 2 20 -10 20 -12 0
-16 10 -8 23 9 14 5 18 -8 9 -12 -7 -18 -25 -12 -40 6 -15 -3 -32 -20 -39 -35
-13 -61 17 -42 47 8 12 -17 19 -64 17 -62 -2 -66 -5 -20 -11 32 -5 53 -19 48
-32 -5 -13 -21 -20 -36 -16 -16 4 -55 6 -88 5 -40 -2 -51 2 -33 14 26 17 -11
46 -67 51 -47 5 -150 83 -141 108 6 15 2 21 -11 13 -12 -8 -17 -32 -11 -54 7
-27 4 -34 -9 -21 -11 11 -22 46 -25 78 -3 39 -15 57 -37 55 -18 -1 -29 9 -23
23 5 14 31 20 63 14 l54 -10 -50 42 c-27 24 -39 43 -25 43 14 1 25 -9 25 -22
0 -13 6 -18 13 -11 17 17 -47 148 -78 160 -14 6 -5 9 20 8 25 -2 45 -10 45
-18 0 -9 13 -16 30 -16 16 0 28 11 25 25 -3 14 7 23 21 20 15 -4 22 2 16 12
-6 10 -35 13 -64 8 -47 -9 -51 -6 -38 35 12 37 8 44 -18 34 -17 -7 -32 -4 -32
7 0 10 8 19 19 19 10 0 24 17 31 39 6 21 27 42 46 47 31 9 31 10 -1 12 -19 1
-35 10 -35 20 0 9 -20 23 -44 29 -24 6 -39 17 -32 24 7 7 29 4 49 -7 74 -38
153 -49 123 -17 -14 16 -31 26 -37 22 -14 -8 -42 12 -77 57 -26 33 -24 34 26
15 75 -29 93 -26 79 10 -7 17 -25 27 -40 21 -15 -6 -27 2 -27 17 0 17 -26 32
-65 37 -36 4 30 10 145 13 218 6 218 6 6 48 -14 3 -31 11 -39 19 -7 8 -48 14
-90 14 -42 0 -77 7 -77 15 0 8 61 13 135 11 104 -4 122 0 78 13 -31 10 -71 14
-90 8 -24 -8 -26 -6 -7 8 63 45 47 117 -31 139 l-75 21 80 4 c64 3 72 7 40 21
-22 9 -31 18 -20 19 11 1 7 11 -10 23 -22 16 -12 18 40 8 159 -30 189 -33 174
-18 -8 9 -35 19 -59 22 -24 4 -51 20 -60 36 -11 20 -29 24 -61 12 -24 -9 -62
-9 -84 -1 -38 15 -38 16 5 18 49 1 64 41 15 41 -16 0 -30 9 -30 20 0 17 32 22
140 25 6 0 40 -5 77 -12 62 -12 65 -10 40 21 -24 29 -23 32 7 21 23 -9 31 -5
24 14 -6 15 -42 31 -80 35 -51 6 -67 1 -59 -18 5 -14 1 -26 -10 -26 -10 0 -19
8 -19 18 0 9 -18 22 -40 28 -27 7 -36 21 -28 42 7 17 20 27 30 21 33 -20 19
16 -17 44 -31 25 -26 27 42 17 71 -10 74 -8 43 23 -18 18 -59 32 -90 31 -34
-1 -62 11 -69 30 -8 21 -2 27 17 19 60 -22 186 -35 136 -14 -26 12 -41 29 -35
39 6 11 1 26 -11 33 -12 8 -28 4 -36 -7 -8 -14 -24 -15 -43 -3 -24 15 -23 18
6 19 40 0 47 32 10 47 -14 5 -6 11 17 11 36 2 41 13 38 77 -2 43 -14 73 -26
70 -13 -2 -17 9 -11 25 8 22 -3 30 -41 30 -29 0 -52 7 -52 15 0 8 43 13 95 9
l95 -6 -55 36 c-67 43 -70 65 -10 68 34 2 36 5 10 12 -19 5 -35 18 -35 29 0
10 -8 14 -18 8 -10 -6 -13 7 -8 30 8 30 22 37 53 28 35 -10 31 -3 -17 38 -34
28 -52 57 -42 66 9 9 22 6 26 -8 17 -46 46 -3 33 48 -8 34 -3 57 15 69 22 14
22 17 2 18 -15 0 -21 9 -14 20 7 11 -4 20 -24 20 -30 1 -31 4 -6 20 17 11 21
20 10 20 -11 1 -4 11 17 22 20 12 38 19 41 15 3 -4 20 -29 39 -56 25 -39 33
-42 33 -15 0 23 16 34 49 34 27 0 55 10 63 23 10 16 1 20 -29 12 -29 -8 -43
-2 -43 17 0 15 -9 28 -20 28 -11 0 -18 -10 -15 -22 11 -51 -45 -36 -74 19
l-31 60 55 -8 c53 -7 53 -7 10 15 -64 32 -56 56 12 37 47 -14 57 -11 55 16 -2
36 -88 60 -217 62 -68 1 -111 38 -50 43 14 1 59 5 100 9 44 4 71 -1 64 -12 -7
-11 43 -19 122 -19 114 0 132 5 121 32 -10 26 -2 30 43 21 30 -6 44 -7 30 0
-14 6 -20 19 -14 29 13 21 -41 20 -251 -5z"/>
<path d="M2011 3712 c21 -16 45 -24 54 -19 8 5 15 0 15 -12 0 -11 -19 -21 -43
-21 -24 0 -38 -6 -31 -12 29 -29 154 14 154 53 0 33 -14 39 -94 39 -86 0 -90
-2 -55 -28z"/>
<path d="M2591 2785 c7 -481 18 -881 22 -889 5 -8 69 -13 143 -12 74 2 112 7
84 11 -27 5 -59 17 -70 28 -13 13 -9 15 13 7 18 -7 39 -3 46 9 8 13 -8 21 -43
22 -31 0 -74 14 -96 31 -38 29 -35 31 44 25 46 -3 91 1 98 9 8 8 -8 14 -36 14
-28 0 -82 14 -119 30 l-67 30 75 -12 c61 -10 75 -6 75 20 0 17 -12 32 -28 32
-15 0 -38 14 -52 30 -21 25 -17 30 25 30 28 0 56 13 62 29 7 19 1 25 -17 18
-15 -6 -44 -1 -64 11 -32 19 -31 21 14 22 71 1 128 39 60 40 -27 0 -63 9 -80
20 -29 19 -26 21 45 27 19 2 32 12 30 23 -3 11 -19 18 -37 16 -17 -2 -31 9
-31 25 0 16 18 29 41 30 39 0 40 2 7 27 -33 25 -31 27 20 27 30 0 66 -9 80
-20 17 -13 25 -13 25 2 0 31 -68 63 -134 63 -31 0 -69 9 -86 20 -24 16 -21 19
15 20 50 0 57 20 21 56 -19 19 -13 24 25 25 42 0 44 3 15 20 -39 22 -27 79 16
79 15 0 28 14 28 30 0 19 -19 30 -50 30 -31 0 -50 11 -50 30 0 23 14 28 55 19
l55 -12 -60 54 c-33 29 -51 48 -39 42 12 -6 32 7 45 28 19 30 18 36 -4 27 -31
-12 -56 38 -40 81 6 16 35 38 65 50 31 13 36 19 12 14 -56 -10 -101 39 -48 53
52 14 50 54 -2 54 -23 0 -36 8 -30 18 6 10 30 13 54 7 30 -8 39 -4 29 12 -8
13 -21 20 -29 15 -7 -5 -36 4 -63 19 -46 25 -47 28 -8 28 55 1 73 21 45 54
-17 21 -15 27 7 27 39 0 38 63 -2 97 -29 24 -29 25 1 16 19 -6 39 3 46 21 8
22 18 25 37 9 14 -11 37 -13 52 -4 17 10 2 20 -46 29 -40 8 -82 8 -92 2 -11
-7 -20 -3 -20 9 0 11 -23 21 -52 21 l-52 0 15 -875z"/>
<path d="M1604 3565 c11 -13 27 -21 35 -16 8 5 13 -9 11 -32 -1 -22 -16 -48
-31 -58 -16 -10 -20 -18 -9 -18 29 0 82 44 95 79 7 18 12 20 13 5 1 -14 22
-24 47 -23 38 2 39 4 7 12 -30 8 -32 14 -10 28 21 13 15 18 -22 20 -47 3 -46
4 10 19 47 12 36 15 -53 13 -89 -3 -109 -9 -93 -29z"/>
<path d="M4123 3302 c-15 -9 -28 -40 -30 -69 -2 -29 -11 -53 -20 -53 -10 0
-13 -26 -7 -57 7 -31 3 -66 -9 -78 -14 -14 -14 -25 1 -34 30 -18 62 4 62 42 0
20 11 27 30 20 19 -8 31 1 33 23 1 19 9 3 17 -36 14 -68 15 -68 17 25 2 52 -5
95 -15 95 -10 0 -14 16 -9 35 12 49 -36 109 -70 87z"/>
<path d="M4151 2930 c-8 -43 -23 -69 -37 -64 -13 4 -21 23 -18 41 3 18 -4 33
-15 33 -27 0 -24 -52 7 -140 24 -67 89 -102 76 -41 -4 16 4 69 17 116 17 59
18 94 4 108 -13 13 -24 -3 -34 -53z"/>
<path d="M1560 2918 c-41 -11 -34 -14 34 -16 46 -1 89 7 96 18 13 21 -49 21
-130 -2z"/>
<path d="M4280 2753 c0 -17 11 -34 25 -40 15 -6 7 -16 -20 -24 -25 -8 -45 -28
-45 -46 1 -29 3 -29 20 -3 17 26 19 25 20 -5 0 -19 -14 -35 -31 -35 -17 0 -26
-9 -19 -20 7 -12 21 -16 30 -10 10 6 26 -4 36 -22 17 -30 19 -30 30 0 7 18 5
32 -5 32 -10 0 -17 18 -16 40 2 22 15 40 29 40 14 0 26 15 26 32 0 24 12 29
45 21 25 -7 65 -13 90 -13 35 0 45 -12 45 -50 0 -34 11 -50 35 -51 19 0 53
-15 75 -32 34 -28 35 -31 4 -20 -22 8 -31 5 -24 -8 7 -11 44 -16 81 -12 89 10
90 -21 1 -38 -37 -7 -66 -23 -64 -36 6 -36 51 -106 51 -79 1 13 -8 29 -19 36
-26 16 -6 50 29 50 38 0 56 -60 29 -93 -13 -15 -15 -27 -5 -27 39 0 22 -119
-19 -132 -39 -12 -39 -14 8 -40 26 -15 36 -27 22 -27 -19 -1 -20 -11 -5 -40
12 -21 15 -52 9 -70 -7 -19 -2 -31 15 -32 19 0 17 -8 -8 -27 -43 -32 -46 -75
-5 -59 17 6 30 1 30 -11 0 -12 -13 -22 -30 -22 -49 0 -34 -40 15 -41 l45 -2
-47 -18 c-26 -11 -55 -14 -65 -8 -10 6 -34 2 -53 -9 -30 -18 -28 -21 19 -21
100 -2 172 -40 131 -70 -22 -16 -33 -44 -28 -73 5 -29 -8 -66 -32 -92 l-40
-44 77 9 c64 8 71 6 38 -12 -31 -16 -41 -41 -41 -99 0 -55 -12 -88 -39 -109
-25 -18 -30 -30 -14 -30 34 -1 86 -52 70 -68 -6 -7 1 -27 16 -46 25 -30 24
-33 -7 -21 -42 15 -39 -24 5 -63 26 -23 26 -25 -3 -16 -28 9 -31 1 -16 -49 20
-71 4 -124 -32 -110 -14 5 -37 -3 -50 -19 -13 -16 -37 -29 -54 -29 -16 0 -25
-11 -20 -25 7 -18 -17 -23 -93 -19 -75 4 -94 1 -72 -15 26 -18 26 -20 -3 -21
-19 0 -39 11 -45 25 -9 18 -15 19 -23 2 -6 -12 -30 -18 -53 -12 -32 9 -38 5
-26 -17 10 -17 1 -14 -23 7 -43 38 -127 48 -127 15 0 -25 -85 -17 -105 10 -10
13 -22 10 -33 -8 -10 -15 -28 -21 -41 -13 -17 11 -13 23 13 44 20 17 25 24 11
17 -64 -32 -305 -32 -305 0 0 18 -8 27 -19 21 -10 -6 -24 -3 -31 9 -7 11 -31
20 -55 20 -73 0 -175 46 -173 79 1 21 4 23 11 6 6 -14 18 -21 27 -15 9 6 41 0
70 -14 43 -19 56 -18 70 4 21 35 -14 106 -43 88 -12 -7 -14 -19 -4 -25 32 -24
26 -59 -9 -50 -22 6 -34 29 -34 68 0 39 8 56 25 50 14 -5 25 1 25 13 0 13 12
7 27 -13 19 -26 31 -30 41 -14 8 13 3 23 -12 23 -19 1 -18 6 4 21 24 17 20 20
-20 18 -79 -5 -87 -1 -60 31 20 24 19 31 -3 38 -111 34 -110 33 -70 62 35 26
35 28 -5 49 -24 13 -36 34 -29 51 16 43 47 37 47 -9 0 -21 9 -44 20 -51 12 -7
15 -22 8 -34 -8 -13 2 -16 27 -8 22 7 63 4 92 -7 33 -12 56 -13 63 0 7 10 -6
19 -28 19 -22 0 -45 9 -52 20 -7 11 1 20 17 20 20 0 26 13 18 43 -10 38 -4 41
62 34 40 -5 73 -3 73 4 0 8 -52 20 -115 27 -170 20 -265 49 -265 83 0 16 14
29 31 29 17 0 26 -9 19 -20 -17 -27 75 -60 165 -60 97 0 66 25 -51 42 l-94 13
94 2 c75 2 164 40 102 44 -9 1 -56 6 -106 11 -49 6 -104 11 -121 11 -17 0 -32
18 -34 40 -2 33 2 36 27 16 36 -31 196 -47 178 -19 -7 12 13 20 49 20 33 0 61
-7 61 -17 0 -9 29 -12 65 -7 54 8 58 12 25 24 -22 8 -51 10 -65 5 -14 -5 -25
-1 -25 9 0 17 -57 41 -179 77 -47 14 -47 12 -15 -20 19 -19 48 -30 65 -24 16
7 29 3 29 -8 0 -10 -13 -19 -30 -19 -16 0 -30 -11 -30 -25 -1 -14 -19 -2 -40
25 -22 28 -35 61 -30 74 4 14 -5 38 -21 54 -36 36 -39 80 -4 59 14 -9 48 -14
75 -12 l50 5 -45 -23 c-25 -13 -45 -31 -45 -41 0 -10 8 -13 19 -7 10 6 23 4
29 -6 6 -10 66 -19 134 -21 67 -1 128 -6 136 -11 7 -4 13 10 13 33 0 35 -9 39
-78 30 -105 -15 -146 1 -99 38 34 25 34 27 1 27 -19 1 -35 15 -35 33 0 20 -11
28 -30 21 -16 -7 -30 -4 -30 5 0 9 -23 17 -52 17 -28 0 -65 13 -82 30 -36 37
103 29 149 -9 14 -12 32 -15 40 -8 8 8 1 23 -16 33 -25 16 -25 18 1 19 27 1
27 3 0 20 -24 16 -21 19 15 20 25 0 45 9 45 21 0 11 -20 28 -45 38 -34 14 -37
19 -10 20 68 2 33 31 -76 64 -90 26 -110 27 -101 5 6 -15 4 -31 -5 -36 -8 -5
-16 14 -19 42 -3 44 2 49 41 36 105 -35 250 -34 195 1 -32 20 -36 27 -12 20
32 -10 34 -7 13 18 -14 17 -33 26 -43 20 -10 -6 -12 3 -5 21 8 21 25 27 52 18
27 -8 35 -5 26 10 -7 12 -31 22 -52 22 -41 0 -52 29 -19 50 11 7 20 3 20 -9 0
-11 10 -21 21 -21 12 0 16 17 9 39 -14 44 53 92 102 73 16 -6 28 1 28 19 0 27
45 37 150 31 36 -1 35 0 -5 18 -67 28 -56 34 55 29 55 -3 100 3 100 13 0 10
-9 18 -20 18 -11 0 -19 7 -18 15 9 52 -8 65 -87 65 -97 -1 -122 -14 -132 -69
-6 -34 -2 -35 26 -12 27 23 30 22 19 -7 -8 -20 -26 -29 -42 -23 -16 6 -38 11
-48 11 -10 0 -7 18 6 39 14 22 20 43 15 48 -15 14 -375 28 -395 15 -31 -20
-19 -313 13 -306 15 3 23 -6 17 -20 -5 -14 -19 -24 -32 -21 -12 3 -22 -8 -22
-24 0 -18 28 -34 70 -42 39 -8 70 -21 70 -31 0 -24 -14 -23 -64 4 -32 17 -45
16 -58 -5 -27 -43 -21 -841 6 -825 15 10 16 5 4 -14 -25 -39 -29 -556 -5 -621
35 -91 254 -128 757 -125 304 1 396 11 666 71 l97 22 -12 991 c-7 546 -15 995
-19 998 -3 4 -113 11 -244 17 -131 5 -267 14 -303 20 -49 8 -65 3 -65 -18z"/>
<path d="M3880 2740 c0 -11 14 -20 30 -20 17 0 37 -1 45 -1 7 -1 17 8 21 20 4
11 -16 21 -44 21 -29 0 -52 -9 -52 -20z"/>
<path d="M2900 2090 c-21 -26 -14 -30 53 -28 42 2 61 7 42 12 -19 5 -35 17
-35 27 0 29 -32 23 -60 -11z"/>
<path d="M1582 1892 c21 -21 181 -33 169 -13 -7 11 -50 21 -96 21 -45 0 -78
-4 -73 -8z"/>
<path d="M1487 1606 c16 -27 152 -44 165 -22 6 9 -16 16 -49 16 -33 0 -75 6
-95 13 -22 9 -30 6 -21 -7z"/>
<path d="M1540 1450 c31 -37 112 -39 126 -3 6 14 -2 26 -17 26 -15 0 -23 -7
-17 -16 6 -9 -3 -17 -20 -17 -16 0 -35 9 -42 20 -7 11 -22 20 -34 20 -13 0
-12 -11 4 -30z"/>
<path d="M1515 1368 c-22 -22 4 -48 48 -48 23 0 37 10 32 25 -9 29 -60 43 -80
23z"/>
<path d="M3802 1232 c17 -17 217 -26 207 -10 -6 10 -57 18 -114 18 -56 0 -98
-4 -93 -8z"/>
</g>
</svg>
