<?xml version="1.0" encoding="UTF-8" standalone="no"?>
<!-- Generator: Adobe Illustrator 24.2.3, SVG Export Plug-In . SVG Version: 6.00 Build 0)  -->

<svg
   xmlns:dc="http://purl.org/dc/elements/1.1/"
   xmlns:cc="http://creativecommons.org/ns#"
   xmlns:rdf="http://www.w3.org/1999/02/22-rdf-syntax-ns#"
   xmlns:svg="http://www.w3.org/2000/svg"
   xmlns="http://www.w3.org/2000/svg"
   xmlns:sodipodi="http://sodipodi.sourceforge.net/DTD/sodipodi-0.dtd"
   xmlns:inkscape="http://www.inkscape.org/namespaces/inkscape"
   version="1.1"
   id="Layer_1"
   x="0px"
   y="0px"
   viewBox="0 0 3391.1698 1108.7639"
   xml:space="preserve"
   inkscape:version="0.91 r13725"
   sodipodi:docname="the-one-blue.svg"
   width="3391.1699"
   height="1108.7639"><metadata
     id="metadata49"><rdf:RDF><cc:Work
         rdf:about=""><dc:format>image/svg+xml</dc:format><dc:type
           rdf:resource="http://purl.org/dc/dcmitype/StillImage" /><dc:title></dc:title></cc:Work></rdf:RDF></metadata><defs
     id="defs47" /><sodipodi:namedview
     pagecolor="#ffffff"
     bordercolor="#666666"
     borderopacity="1"
     objecttolerance="10"
     gridtolerance="10"
     guidetolerance="10"
     inkscape:pageopacity="0"
     inkscape:pageshadow="2"
     inkscape:window-width="1920"
     inkscape:window-height="1146"
     id="namedview45"
     showgrid="false"
     fit-margin-top="0"
     fit-margin-left="0"
     fit-margin-right="0"
     fit-margin-bottom="0"
     inkscape:zoom="0.065704903"
     inkscape:cx="1708.5451"
     inkscape:cy="451.11003"
     inkscape:window-x="0"
     inkscape:window-y="24"
     inkscape:window-maximized="1"
     inkscape:current-layer="Layer_1" /><style
     type="text/css"
     id="style3">
	.st0{fill:#1D232C;}
</style><path
     class="st0"
     d="m 511.21,240.01392 c -7.22,0 -13.23,2.41 -18.04,7.22 -4.81,4.81 -7.22,10.83 -7.22,18.04 l 0,336.81 c 0,30.49 -5.83,59.36 -17.44,86.61 -11.63,27.27 -27.48,50.93 -47.51,70.97 -20.05,20.05 -43.12,35.9 -69.17,47.51 -26.07,11.63 -53.94,17.44 -83.6,17.44 -29.68,0 -57.74,-5.81 -84.2,-17.44 -26.46,-11.62 -49.53,-27.46 -69.16,-47.51 -19.66,-20.04 -35.3,-43.7 -46.91,-70.97 -11.63,-27.25 -17.44,-56.12 -17.44,-86.61 l 0,-336.81 c 0,-7.22 -2.4,-13.23 -7.22,-18.04 -4.81,-4.81 -10.83,-7.22 -18.04,-7.22 -7.22,0 -13.23,2.41 -18.04,7.22 -4.81,4.81 -7.22,10.83 -7.22,18.04 l 0,336.81 c 0,37.7 7.01,72.77 21.05,105.25 14.02,32.48 33.27,60.74 57.74,84.8 24.45,24.06 52.93,43.12 85.4,57.14 32.48,14.02 67.16,21.05 104.05,21.05 37.69,0 72.78,-7.03 105.25,-21.05 32.48,-14.02 60.74,-33.08 84.8,-57.14 24.06,-24.06 43.1,-52.33 57.14,-84.8 14.02,-32.48 21.05,-67.55 21.05,-105.25 l 0,-336.81 c 0,-7.22 -2.4,-13.23 -7.22,-18.04 -4.82,-4.82 -10.83,-7.22 -18.05,-7.22 z"
     id="path5"
     inkscape:connector-curvature="0"
     style="fill:#1d232c" /><path
     class="st0"
     d="m 1288.27,240.01392 c -7.22,0 -13.23,2.41 -18.04,7.22 -4.81,4.81 -7.22,10.83 -7.22,18.04 l 0,336.81 c 0,30.49 -5.83,59.36 -17.44,86.61 -11.64,27.27 -27.48,50.93 -47.51,70.97 -20.05,20.05 -43.12,35.9 -69.16,47.51 -26.07,11.63 -53.94,17.44 -83.6,17.44 -29.68,0 -57.74,-5.81 -84.2,-17.44 -26.46,-11.62 -49.53,-27.46 -69.17,-47.51 -19.66,-20.04 -35.3,-43.7 -46.91,-70.97 -11.64,-27.25 -17.44,-56.12 -17.44,-86.61 l 0,-336.81 c 0,-7.22 -2.41,-13.23 -7.22,-18.04 -4.81,-4.81 -10.83,-7.22 -18.04,-7.22 -7.21,0 -13.23,2.41 -18.04,7.22 -4.81,4.81 -7.22,10.83 -7.22,18.04 l 0,336.81 c 0,35.3 6.2,68.56 18.65,99.84 12.42,31.27 29.66,58.94 51.72,83 22.05,24.06 47.91,43.51 77.58,58.34 29.66,14.83 61.74,23.85 96.23,27.06 l 0,213.17998 c 0,7.22 2.4,13.23 7.22,18.04 4.81,4.81 10.83,7.22 18.04,7.22 7.22,0 13.23,-2.41 18.04,-7.22 4.81,-4.81 7.22,-10.83 7.22,-18.04 l 0,-213.17998 c 34.47,-3.21 66.55,-12.24 96.23,-27.06 29.66,-14.83 55.33,-34.28 76.98,-58.34 21.65,-24.06 38.49,-51.72 50.52,-83 12.03,-31.28 18.04,-64.54 18.04,-99.84 l 0,-336.81 c 0,-7.22 -2.41,-13.23 -7.22,-18.04 -4.81,-4.82 -10.82,-7.22 -18.04,-7.22 z"
     id="path7"
     inkscape:connector-curvature="0"
     style="fill:#1d232c" /><path
     class="st0"
     d="m 2090.6,602.07392 0,-336.8 c 0,-7.22 -2.41,-13.23 -7.22,-18.04 -4.81,-4.81 -10.83,-7.22 -18.04,-7.22 -7.21,0 -13.23,2.41 -18.04,7.22 -4.81,4.81 -7.22,10.83 -7.22,18.04 l 0,336.81 c 0,30.49 -5.83,59.36 -17.44,86.61 -11.64,27.27 -27.48,50.93 -47.51,70.97 -20.05,20.05 -43.12,35.9 -69.16,47.51 -26.07,11.63 -53.94,17.44 -83.6,17.44 -29.68,0 -57.74,-5.81 -84.2,-17.44 -26.46,-11.62 -49.53,-27.46 -69.17,-47.51 -19.66,-20.04 -35.3,-43.7 -46.91,-70.97 -11.63,-27.25 -17.44,-56.12 -17.44,-86.61 l 0,-336.81 c 0,-7.22 -2.41,-13.23 -7.22,-18.04 -4.81,-4.81 -10.83,-7.22 -18.04,-7.22 -7.21,0 -13.23,2.41 -18.04,7.22 -4.81,4.81 -7.22,10.83 -7.22,18.04 l 0,336.81 c 0,37.7 7.01,72.77 21.05,105.25 14.02,32.48 33.27,60.74 57.74,84.8 24.45,24.06 52.93,43.12 85.4,57.14 32.48,14.02 67.16,21.05 104.05,21.05 37.69,0 72.78,-7.03 105.25,-21.05 32.48,-14.02 60.75,-33.08 84.8,-57.14 24.05,-24.06 43.1,-52.33 57.14,-84.8 14.01,-32.48 21.04,-67.55 21.04,-105.26 z"
     id="path9"
     inkscape:connector-curvature="0"
     style="fill:#1d232c" /><path
     class="st0"
     d="m 2812.92,285.11392 c -24.47,-24.45 -52.93,-43.7 -85.4,-57.74 -32.48,-14.02 -67.18,-21.05 -104.05,-21.05 -43.31,0 -84.01,10.43 -122.09,31.28 -38.1,20.86 -69.97,48.92 -95.63,84.2 l 0,-56.54 c 0,-7.22 -2.41,-13.23 -7.22,-18.04 -4.81,-4.81 -10.83,-7.22 -18.04,-7.22 -7.21,0 -13.23,2.41 -18.04,7.22 -4.81,4.81 -7.22,10.83 -7.22,18.04 l 0,550.92 c 0,7.22 2.41,13.23 7.22,18.04 4.81,4.81 10.83,7.22 18.04,7.22 7.21,0 13.23,-2.41 18.04,-7.22 4.81,-4.81 7.22,-10.83 7.22,-18.04 l 0,-348.84 c 0,-28.87 5.81,-56.12 17.44,-81.8 11.62,-25.66 27.25,-48.12 46.91,-67.36 19.64,-19.25 42.7,-34.28 69.17,-45.11 26.46,-10.83 54.53,-16.24 84.2,-16.24 29.66,0 57.74,5.83 84.2,17.44 26.46,11.63 49.71,27.27 69.77,46.91 20.04,19.66 35.67,42.91 46.91,69.77 11.22,26.88 16.84,55.15 16.84,84.8 l 0,340.42 c 0,7.22 2.4,13.23 7.22,18.04 4.81,4.81 10.83,7.22 18.04,7.22 7.21,0 13.23,-2.41 18.04,-7.22 4.81,-4.81 7.22,-10.83 7.22,-18.04 l 0,-340.42 c 0,-36.88 -7.03,-71.76 -21.05,-104.65 -14.04,-32.85 -33.28,-61.51 -57.74,-85.99 z"
     id="path11"
     inkscape:connector-curvature="0"
     style="fill:#1d232c" /><path
     class="st0"
     d="m 3174.98,240.01392 c -7.41,0 -13.36,2.41 -17.88,7.22 -4.51,4.81 -6.77,10.83 -6.77,18.04 l 0,552.13 c 0,16.05 8.21,24.06 24.64,24.06 7.39,0 13.55,-2.2 18.47,-6.62 4.92,-4.4 7.41,-10.23 7.41,-17.44 l 0,-552.13 c 0,-7.22 -2.48,-13.23 -7.41,-18.04 -4.91,-4.82 -11.07,-7.22 -18.46,-7.22 z"
     id="path13"
     inkscape:connector-curvature="0"
     style="fill:#1d232c" /><path
     class="st0"
     d="m 3153.9,141.27392 c 2.57,2.99 5.75,5.43 9.26,7.21 1.78,0.91 3.66,1.65 5.58,2.21 1.35,0.4 2.32,0.67 3.66,0.89 0,0 1.51,0.23 1.51,0.23 13.6,1.43 27.64,-5.61 32.54,-20.26 0.13,-0.4 1.57,-4.52 1.69,-4.93 3.72,-12.51 3.76,-28.830001 2.26,-41.710001 -1.42,-12.24 -4.12,-23.74 -7.81,-35.49 -5.64,-17.92 -11.77,-28.93 -20.9,-45.3199999 l -1.42,-2.45 c -1.29,-2.22999998 -4.52,-2.19999998 -5.77,0.06 l -1.56,2.81 c -9.13,16.3899999 -15.05,26.9899999 -20.69,44.9099999 -3.7,11.75 -6.39,23.25 -7.81,35.49 -1.18,10.15 -1.25,20.520001 -0.02,30.670001 1.12,9.1 3.36,18.56 9.48,25.68 z"
     id="path15"
     inkscape:connector-curvature="0"
     style="fill:#1d232c" /><g
     id="g17"
     transform="translate(-559.17,-617.93608)"><path
       class="st0"
       d="m 2539.64,1705.85 40.76,0 0,14.87 -59.8,0 0,-117.93 19.04,0 0,103.06 z"
       id="path19"
       inkscape:connector-curvature="0"
       style="fill:#1d232c" /><path
       class="st0"
       d="m 2687.8,1602.79 0,117.93 -19.04,0 0,-117.93 19.04,0 z"
       id="path21"
       inkscape:connector-curvature="0"
       style="fill:#1d232c" /><path
       class="st0"
       d="m 2873.39,1612.14 c 9.35,6.91 15.54,16.32 18.54,28.23 l -20.05,0 c -2.56,-6.35 -6.77,-11.41 -12.61,-15.2 -5.85,-3.78 -12.78,-5.68 -20.8,-5.68 -7.35,0 -13.95,1.73 -19.79,5.18 -5.85,3.45 -10.41,8.35 -13.7,14.7 -3.29,6.35 -4.93,13.81 -4.93,22.38 0,9.02 1.67,16.76 5.01,23.22 3.34,6.46 8.04,11.39 14.12,14.78 6.07,3.4 13.11,5.09 21.13,5.09 9.8,0 18.21,-3.03 25.22,-9.1 7.02,-6.07 11.25,-14.39 12.7,-24.97 l -43.27,0 0,-14.03 59.3,0 0,18.21 c -1.34,8.69 -4.43,16.57 -9.27,23.64 -4.84,7.07 -11.25,12.72 -19.21,16.96 -7.96,4.23 -17.07,6.35 -27.31,6.35 -11.47,0 -21.61,-2.56 -30.4,-7.68 -8.8,-5.12 -15.59,-12.22 -20.38,-21.3 -4.79,-9.08 -7.18,-19.46 -7.18,-31.15 0,-11.69 2.39,-22.08 7.18,-31.15 4.79,-9.08 11.55,-16.15 20.3,-21.21 8.74,-5.07 18.85,-7.6 30.32,-7.6 14.03,-0.02 25.73,3.43 35.08,10.33 z"
       id="path23"
       inkscape:connector-curvature="0"
       style="fill:#1d232c" /><path
       class="st0"
       d="m 3080.7,1602.79 0,117.93 -19.21,0 0,-52.95 -55.46,0 0,52.95 -19.04,0 0,-117.93 19.04,0 0,49.45 55.46,0 0,-49.45 19.21,0 z"
       id="path25"
       inkscape:connector-curvature="0"
       style="fill:#1d232c" /><path
       class="st0"
       d="m 3253.09,1602.79 0,15.37 -32.91,0 0,102.57 -19.21,0 0,-102.57 -32.74,0 0,-15.37 84.86,0 z"
       id="path27"
       inkscape:connector-curvature="0"
       style="fill:#1d232c" /><path
       class="st0"
       d="m 3359.83,1602.79 0,117.93 -19.04,0 0,-117.93 19.04,0 z"
       id="path29"
       inkscape:connector-curvature="0"
       style="fill:#1d232c" /><path
       class="st0"
       d="m 3551.76,1720.72 -19.04,0 -57.3,-87.03 0,87.03 -19.04,0 0,-117.77 19.04,0 57.3,87.37 0,-87.37 19.04,0 0,117.77 z"
       id="path31"
       inkscape:connector-curvature="0"
       style="fill:#1d232c" /><path
       class="st0"
       d="m 3737.35,1612.14 c 9.35,6.91 15.54,16.32 18.54,28.23 l -20.05,0 c -2.56,-6.35 -6.77,-11.41 -12.61,-15.2 -5.85,-3.78 -12.78,-5.68 -20.8,-5.68 -7.35,0 -13.95,1.73 -19.79,5.18 -5.85,3.45 -10.41,8.35 -13.7,14.7 -3.29,6.35 -4.93,13.81 -4.93,22.38 0,9.02 1.67,16.76 5.01,23.22 3.34,6.46 8.04,11.39 14.12,14.78 6.07,3.4 13.11,5.09 21.13,5.09 9.8,0 18.21,-3.03 25.22,-9.1 7.02,-6.07 11.25,-14.39 12.7,-24.97 l -43.27,0 0,-14.03 59.3,0 0,18.21 c -1.34,8.69 -4.43,16.57 -9.27,23.64 -4.84,7.07 -11.25,12.72 -19.21,16.96 -7.96,4.23 -17.07,6.35 -27.31,6.35 -11.47,0 -21.61,-2.56 -30.4,-7.68 -8.8,-5.12 -15.59,-12.22 -20.38,-21.3 -4.79,-9.08 -7.18,-19.46 -7.18,-31.15 0,-11.69 2.39,-22.08 7.18,-31.15 4.79,-9.08 11.55,-16.15 20.3,-21.21 8.74,-5.07 18.85,-7.6 30.32,-7.6 14.03,-0.02 25.73,3.43 35.08,10.33 z"
       id="path33"
       inkscape:connector-curvature="0"
       style="fill:#1d232c" /></g><g
     id="g35"
     transform="translate(-559.17,-617.93608)"><g
       id="g37"><path
         class="st0"
         d="m 3909.93,710.79 -16.83,-29.14 -4.42,0 -7.89,0 0,29.14 -8.27,0 0,-67.03 19.91,0 c 15,0 22.31,7.02 22.31,18.75 0,9.62 -4.71,15.58 -13.37,18.08 l 18.18,30.2 -9.62,0 z m -18.37,-36.83 c 9.52,0 14.81,-3.27 14.81,-11.25 0,-7.98 -5.39,-11.25 -14.81,-11.25 l -10.77,0 0,22.5 10.77,0 z"
         id="path39"
         inkscape:connector-curvature="0"
         style="fill:#1d232c" /></g></g><g
     id="g41"
     transform="translate(-559.17,-617.93608)"><path
       class="st0"
       d="m 3892.52,735.79 c -31.88,0 -57.82,-25.94 -57.82,-57.82 0,-31.88 25.94,-57.82 57.82,-57.82 31.88,0 57.82,25.94 57.82,57.82 0,31.89 -25.94,57.82 -57.82,57.82 z m 0,-107.9 c -27.62,0 -50.08,22.47 -50.08,50.08 0,27.61 22.47,50.08 50.08,50.08 27.61,0 50.08,-22.47 50.08,-50.08 0,-27.61 -22.47,-50.08 -50.08,-50.08 z"
       id="path43"
       inkscape:connector-curvature="0"
       style="fill:#1d232c" /></g></svg>